<svg width="32" height="32" viewBox="0 0 12000 12000" xmlns="http://www.w3.org/2000/svg">
<g transform="translate(-150, 12000) scale(1, -1)">
<path d="M4934 10081 c-28 -5 -69 -14 -90 -21 -355 -115 -515 -574 -317 -909 43 -71 122 -157 185 -198 l42 -28 -75 -7 c-498 -48 -1005 -164 -1419 -325 -269 -104 -581 -277 -779 -430 -91 -71 -286 -256 -303 -286 -7 -13 -5 -25 7 -44 9 -13 15 -26 13 -27 -24 -14 -221 -166 -275 -213 -82 -72 -92 -74 -243 -49 -125 20 -216 50 -395 129 -98 43 -178 72 -207 75 -69 7 -189 -34 -360 -121 -226 -115 -266 -142 -277 -182 -15 -55 5 -158 76 -399 113 -379 143 -521 222 -1051 l41 -270 -16 -105 c-33 -222 -33 -547 1 -769 158 -1041 907 -1962 2039 -2512 909 -441 1983 -599 3046 -448 1227 174 2318 783 2954 1649 43 58 85 116 95 130 l18 24 99 -84 c317 -271 641 -434 1004 -505 47 -10 158 -19 250 -22 285 -9 488 34 735 157 329 164 573 414 745 765 407 834 223 1956 -450 2739 -153 179 -361 356 -560 479 -177 109 -433 213 -620 252 -47 10 -90 22 -96 26 -5 5 -53 16 -105 25 -70 13 -149 17 -309 17 -238 -1 -434 -18 -710 -63 -96 -16 -245 -37 -331 -46 l-157 -17 -103 93 c-88 79 -149 129 -293 242 -21 16 -21 16 -1 38 l19 21 -79 76 c-112 106 -317 268 -470 372 -600 407 -1225 631 -1837 658 -76 3 -138 9 -138 12 0 3 19 17 41 31 102 62 209 218 244 355 20 78 19 240 -1 319 -50 198 -194 359 -378 424 -64 23 -89 25 -251 28 -99 1 -203 -1 -231 -5z m5140 -3242 c432 -86 834 -425 1062 -896 93 -192 157 -433 172 -644 46 -657 -270 -1186 -803 -1345 -119 -35 -344 -45 -475 -20 -283 53 -591 327 -681 606 l-21 65 26 145 c41 228 49 334 43 570 -8 300 -40 486 -132 765 -29 88 -76 212 -105 275 -86 190 -85 163 -10 232 255 234 567 317 924 247z" fill="#966a4d"/>
</g>
</svg>