<?xml version="1.0" encoding="utf-8"?>
<svg version="1.1" width="1688" height="367" xmlns="http://www.w3.org/2000/svg">
  <defs/>
  <path d="M0 0 C12.87 0.66 25.74 1.32 39 2 C48.19452136 20.38904272 48.19452136 20.38904272 50.97265625 26.49609375 C51.29774673 27.20466019 51.62283722 27.91322662 51.95777893 28.64326477 C52.99540179 30.90677821 54.02906049 33.17207398 55.0625 35.4375 C55.80433332 37.05835585 56.54636207 38.67912227 57.28857422 40.29980469 C59.53026538 45.19779845 61.7661008 50.0984483 64 55 C64.33574036 55.73655823 64.67148071 56.47311646 65.01739502 57.23199463 C70.74976454 69.81032306 76.46602834 82.39597083 82.16262817 94.99053955 C83.5613909 98.08216404 84.96183093 101.17302721 86.36248779 104.26379395 C87.03363516 105.74607119 87.70393342 107.22873322 88.37335205 108.71179199 C89.2963769 110.75669177 90.22210576 112.8003466 91.1484375 114.84375 C91.67614746 116.01099609 92.20385742 117.17824219 92.74755859 118.38085938 C93.75953829 120.87049699 93.75953829 120.87049699 95 122 C116.1671085 72.65441841 116.1671085 72.65441841 136.4375 22.9375 C136.86788574 21.85114258 137.29827148 20.76478516 137.74169922 19.64550781 C140.13626617 13.50654838 142.22030184 7.34504892 144 1 C144.74459473 1.00523682 145.48918945 1.01047363 146.25634766 1.01586914 C165.65399119 1.21459364 165.65399119 1.21459364 185 0 C185 0.99 185 1.98 185 3 C181.40885229 4.79557385 177.21516477 4.80881628 173.26171875 5.3046875 C168.36785166 6.34793102 165.77869089 7.83196367 163 12 C162.020308 15.67869304 161.87131171 19.15347513 161.8671875 22.94921875 C161.86517334 24.16432129 161.86315918 25.37942383 161.86108398 26.63134766 C161.86521204 27.98340009 161.86986998 29.33545099 161.875 30.6875 C161.87621857 31.38607117 161.87743713 32.08464233 161.87869263 32.80438232 C161.92146403 54.26127114 162.42562031 75.71488382 162.93359375 97.16485596 C162.99570732 99.81672848 163.05500358 102.46864628 163.11328125 105.12060547 C163.209118 109.4349473 163.3210747 113.74866413 163.4375 118.0625 C163.46448975 119.27244629 163.49147949 120.48239258 163.51928711 121.72900391 C163.49438222 132.82605844 163.49438222 132.82605844 168.10546875 142.453125 C171.79652751 144.42567462 175.20435264 145.12588467 179.3125 145.75 C180.05306641 145.87503906 180.79363281 146.00007812 181.55664062 146.12890625 C183.36886152 146.43289169 185.18417461 146.71834436 187 147 C187.33 147.99 187.66 148.98 188 150 C166.88 150 145.76 150 124 150 C124.33 149.01 124.66 148.02 125 147 C127.8359375 146.15625 127.8359375 146.15625 131.375 145.5 C135.77830136 144.73454345 135.77830136 144.73454345 139.7890625 142.90625 C143.67733576 136.78535533 143.28123788 129.13649952 143.23046875 122.1640625 C143.23032524 120.58455811 143.23032524 120.58455811 143.23017883 118.97314453 C143.22645031 115.52364857 143.20747296 112.07443721 143.1875 108.625 C143.1806193 106.22965598 143.17411367 103.83431086 143.16796875 101.43896484 C143.08054065 77.28770524 142.59371763 53.14346419 142 29 C141.32517578 30.60488281 141.32517578 30.60488281 140.63671875 32.2421875 C127.78317357 62.79827364 114.76662753 93.28257868 101.68652344 123.7421875 C97.78604247 132.82599312 93.89289576 141.91294174 90 151 C88.12251282 150.70959473 88.12251282 150.70959473 86 150 C84.46178411 147.36842279 83.20531385 144.86867093 81.98046875 142.09375 C81.6053717 141.27526581 81.23027466 140.45678162 80.84381104 139.61349487 C79.61118531 136.91506365 78.39944852 134.20777313 77.1875 131.5 C76.33149268 129.61609288 75.47413893 127.73279701 74.61547852 125.85009766 C72.45914933 121.11409036 70.3189151 116.3710098 68.18334961 111.62561035 C66.48064421 107.84765589 64.76486528 104.07571029 63.046875 100.3046875 C61.25113928 96.36142892 59.45604171 92.41790912 57.66845703 88.47094727 C49.8756109 71.2696779 41.93044663 54.13814281 34 37 C33.08176918 40.14692575 32.8495022 43.01340783 32.79467773 46.28637695 C32.77474762 47.34822205 32.7548175 48.41006714 32.73428345 49.50408936 C32.71755585 50.65387268 32.70082825 51.80365601 32.68359375 52.98828125 C32.6626767 54.18745178 32.64175964 55.38662231 32.62020874 56.62213135 C32.55399907 60.51885509 32.49514223 64.4156407 32.4375 68.3125 C32.41698578 69.62878387 32.39647156 70.94506775 32.37533569 72.30123901 C32.23680229 81.20066586 32.11419803 90.10023076 32 99 C31.98690796 99.97509521 31.97381592 100.95019043 31.96032715 101.95483398 C31.89116528 107.157423 31.84190277 112.3595317 31.8125 117.5625 C31.79952881 118.73917236 31.78655762 119.91584473 31.77319336 121.12817383 C31.68401026 132.17299374 31.68401026 132.17299374 36.16796875 141.94921875 C39.55548674 144.40224902 42.20883542 145.0838119 46.3125 145.8125 C47.56675781 146.04582031 48.82101562 146.27914062 50.11328125 146.51953125 C51.06589844 146.67808594 52.01851562 146.83664062 53 147 C53 147.99 53 148.98 53 150 C36.17 150 19.34 150 2 150 C2 149.01 2 148.02 2 147 C3.12019531 146.74605469 4.24039063 146.49210938 5.39453125 146.23046875 C6.86732093 145.88337819 8.33997001 145.53569067 9.8125 145.1875 C10.91948242 144.9390332 10.91948242 144.9390332 12.04882812 144.68554688 C17.25820251 143.52181495 17.25820251 143.52181495 21 140 C24.18881251 132.55943748 24.1385876 124.18173228 24.29711914 116.19824219 C24.31677231 115.36924911 24.33642548 114.54025604 24.35667419 113.68614197 C24.42000529 110.97312513 24.47768333 108.26002174 24.53515625 105.546875 C24.57826304 103.64031292 24.62167966 101.73375781 24.66539001 99.82720947 C24.75599735 95.83977138 24.84400388 91.85228773 24.92993164 87.86474609 C25.03939918 82.78693348 25.15357719 77.70924144 25.26950932 72.63157272 C25.3591512 68.69534087 25.44714594 64.75907363 25.53457451 60.82279205 C25.57614399 58.95233764 25.61800328 57.08188964 25.66017342 55.21144867 C27.88067819 31.82194814 27.88067819 31.82194814 20 11 C14.15335878 6.02894273 7.3788543 4.51266513 0 3 C0 2.01 0 1.02 0 0 Z " transform="translate(826,131)" style="fill: rgb(4, 7, 7);"/>
  <path d="M0 0 C2.37499856 0.090783 4.71938777 0.24026019 7.08703613 0.42941284 C15.2656465 1.0100812 23.40839342 1.14229962 31.60742188 1.12939453 C33.09119204 1.1307546 34.57496187 1.1325379 36.05873108 1.13470459 C40.03601241 1.13920699 44.01326738 1.13751943 47.99054909 1.1343255 C52.18571663 1.13176425 56.38088216 1.1341498 60.5760498 1.13571167 C67.61629637 1.13752249 74.65653239 1.13515574 81.69677734 1.13037109 C89.79474022 1.12493059 97.8926779 1.12669401 105.99064016 1.1321975 C112.98818471 1.13675976 119.98572175 1.13736403 126.98326731 1.13475883 C131.14297809 1.13321309 135.3026771 1.13295489 139.46238708 1.13629532 C143.37611995 1.13921963 147.28982086 1.13711614 151.20355034 1.13140106 C152.62556849 1.1300976 154.04758941 1.1304255 155.4696064 1.13266373 C165.35408616 1.14676726 175.14691319 0.71512203 185 0 C186.31248283 2.62496565 185.73930463 3.60199826 185.0625 6.4375 C183.38211308 14.87326787 183.8403553 23.44127005 184 32 C183.01 32 182.02 32 181 32 C180.78085938 31.26394531 180.56171875 30.52789062 180.3359375 29.76953125 C178.25647424 23.37053251 176.79262693 19.5646935 171 16 C157.3119535 9.28041354 139.92685076 10.60670864 125.0625 10.375 C123.01105298 10.33671887 120.95962029 10.2976617 118.90820312 10.2578125 C113.93892164 10.16294377 108.96956555 10.07852226 104 10 C104.08395737 31.35795386 104.17911194 52.71583184 104.28752708 74.07367611 C104.33760836 83.99091493 104.38405177 93.90814568 104.421875 103.82543945 C104.45485829 112.47125953 104.49472444 121.11701608 104.54279006 129.76276594 C104.56799208 134.33887512 104.58979186 138.91494248 104.60334396 143.49110222 C104.61622158 147.80274018 104.63833695 152.11423429 104.66738319 156.42579269 C104.67641456 158.00391517 104.68213877 159.58206079 104.68421364 161.16020775 C104.46323948 175.06891617 104.46323948 175.06891617 109 188 C113.70237273 191.00866097 118.46281847 191.8481532 123.875 192.6875 C125.050625 192.88182617 125.050625 192.88182617 126.25 193.08007812 C128.16525842 193.39539506 130.08245273 193.69891518 132 194 C132 194.99 132 195.98 132 197 C130.99710938 196.9278125 129.99421875 196.855625 128.9609375 196.78125 C103.42403515 195.14404499 77.52994049 195.39362172 52 197 C52 196.01 52 195.02 52 194 C53.22976562 193.82984375 54.45953125 193.6596875 55.7265625 193.484375 C57.35949332 193.24037384 58.99229955 192.9955379 60.625 192.75 C61.43324219 192.64042969 62.24148437 192.53085937 63.07421875 192.41796875 C68.26275704 191.61648723 71.85207303 190.43630426 76 187 C81.22373132 177.63330936 80.16562909 166.62301618 80.20532227 156.22070312 C80.21491321 154.62348179 80.22492399 153.02626292 80.23532104 151.42904663 C80.26224445 147.11149215 80.28332164 142.79392688 80.30332303 138.47633553 C80.32526053 133.95730776 80.35261107 129.43831279 80.37937927 124.91931152 C80.42920154 116.37018142 80.474179 107.82103302 80.51740164 99.27186728 C80.56686371 89.53544873 80.62174845 79.7990631 80.67708123 70.06267643 C80.79074051 50.04181498 80.89761423 30.02092207 81 10 C75.00813764 10.0946752 69.01662654 10.20099708 63.02514648 10.31738281 C60.99362608 10.3552921 58.96204718 10.39020556 56.93041992 10.421875 C31.40206372 9.70786421 31.40206372 9.70786421 9.0625 19.6875 C6.59952448 23.64318795 5.22290109 27.52597163 4 32 C3.01 32 2.02 32 1 32 C1.03480469 30.15148437 1.03480469 30.15148437 1.0703125 28.265625 C1.18068105 19.67078253 1.13176841 11.510698 -0.66015625 3.0546875 C-0.82837891 2.03761719 -0.82837891 2.03761719 -1 1 C-0.67 0.67 -0.34 0.34 0 0 Z " transform="translate(42,83)" style="fill: rgb(4, 7, 7);"/>
  <path d="M0 0 C4.90318903 4.71505708 5.2796939 11.66780796 5.81640625 18.06640625 C5.89681152 18.93555664 5.9772168 19.80470703 6.06005859 20.70019531 C6.71669455 28.33621347 6.83780341 35.90684376 6.62890625 43.56640625 C5.63890625 43.56640625 4.64890625 43.56640625 3.62890625 43.56640625 C3.30019531 42.45845703 3.30019531 42.45845703 2.96484375 41.328125 C-2.52556641 23.76327623 -12.01432197 10.56468045 -28.37109375 1.56640625 C-48.18166022 -8.13621134 -71.79407947 -9.13255444 -92.66015625 -2.3671875 C-111.87176968 5.15363791 -125.69931352 18.52598975 -134.18359375 37.19140625 C-143.67458904 59.68369115 -144.78185027 87.06605889 -138.37109375 110.56640625 C-138.17241699 111.29859375 -137.97374023 112.03078125 -137.76904297 112.78515625 C-133.51343657 127.88219888 -126.84141812 140.75107974 -116.37109375 152.56640625 C-115.78070313 153.25089844 -115.1903125 153.93539062 -114.58203125 154.640625 C-101.2278404 169.10292956 -81.02274812 177.60887774 -61.5859375 178.7265625 C-43.20408128 179.24027173 -24.79802359 173.76836921 -10.9296875 161.38671875 C-2.11699103 152.29070378 3.36540558 141.20141298 4.62890625 128.56640625 C5.94890625 128.56640625 7.26890625 128.56640625 8.62890625 128.56640625 C8.38904404 132.49559601 8.14041017 136.42413147 7.88427734 140.35229492 C7.75695023 142.33158768 7.63620675 144.31130048 7.515625 146.29101562 C6.16948158 166.74204073 6.16948158 166.74204073 2.25390625 171.37890625 C0.6328125 172.45703125 0.6328125 172.45703125 -1.37109375 173.56640625 C-2.20769531 174.05625 -3.04429687 174.54609375 -3.90625 175.05078125 C-20.7395341 184.20373788 -39.8355821 185.96063782 -58.68359375 185.87890625 C-59.69232544 185.87617203 -59.69232544 185.87617203 -60.72143555 185.87338257 C-87.06847982 185.75365873 -113.15938433 179.37288346 -133.37109375 161.56640625 C-134.17675781 160.90253906 -134.98242188 160.23867188 -135.8125 159.5546875 C-152.36926321 145.47511939 -163.24404859 125.04567275 -166.37109375 103.56640625 C-168.26635536 72.62266595 -161.57038683 46.7625345 -140.80859375 23.25390625 C-139.3373697 21.68392534 -137.85862585 20.1209443 -136.37109375 18.56640625 C-135.74847656 17.880625 -135.12585938 17.19484375 -134.484375 16.48828125 C-100.732397 -19.45722152 -41.97961516 -21.62586236 0 0 Z " transform="translate(613.37109375,98.43359375)" style="fill: rgb(4, 7, 7);"/>
  <path d="M0 0 C22.95175837 -0.5133946 44.17926106 6.72877622 60.86401367 22.55688477 C75.27025948 36.80666243 82.8125772 55.83358686 83.30859375 75.9609375 C83.38011804 96.70775035 74.74792169 115.90182117 60.546875 130.8515625 C59.79921875 131.60050781 59.0515625 132.34945312 58.28125 133.12109375 C57.59546875 133.81847656 56.9096875 134.51585937 56.203125 135.234375 C38.46326052 152.15294946 15.67823863 156.7974466 -8.0234375 156.42578125 C-29.57767504 155.69869378 -47.6250421 145.79297815 -62.40625 130.43359375 C-76.29075423 114.3136595 -82.06490952 94.24187241 -80.71875 73.12109375 C-78.92194004 57.31246304 -72.83026321 43.34233998 -62.71875 31.12109375 C-62.05359375 30.28191406 -61.3884375 29.44273437 -60.703125 28.578125 C-47.28487834 12.55077483 -27.60686146 3.08722329 -7.03125 0.37109375 C-4.68840997 0.19188397 -2.34743139 0.10455513 0 0 Z M-46.68359375 26.2421875 C-59.88006806 41.97977721 -62.98023576 62.79386377 -61.4453125 82.66015625 C-58.91876544 105.30373843 -49.9566234 124.23236163 -32.34375 138.99609375 C-19.17098397 148.55509211 -3.5276967 152.36994641 12.55859375 150.74609375 C28.53850119 148.06321317 41.51361676 140.99743294 51.3515625 127.98828125 C64.31861194 108.7214507 66.48715507 84.76860708 62.09375 62.24609375 C61.54306691 60.18935646 60.94024839 58.14572736 60.28125 56.12109375 C59.92933594 55.02152344 59.57742188 53.92195313 59.21484375 52.7890625 C52.80151419 34.60737903 40.318876 19.81243435 22.90625 11.30859375 C-2.36149587 0.68465515 -28.1740218 6.2606814 -46.68359375 26.2421875 Z " transform="translate(727.71875,127.87890625)" style="fill: rgb(4, 7, 7);"/>
  <path d="M0 0 C4.39572367 0.0641291 8.78504811 0.18647609 13.17749023 0.36010742 C14.66759893 0.41113523 16.1583164 0.44696872 17.64916992 0.46655273 C31.6038614 0.66770987 31.6038614 0.66770987 37.30859375 6.33984375 C38.57647015 7.86285033 39.80968277 9.41563751 41 11 C42.20039821 12.38193291 43.40747896 13.75812877 44.625 15.125 C45.18445312 15.77726563 45.74390625 16.42953125 46.3203125 17.1015625 C48.49264088 19.55679876 50.81793999 21.83080336 53.15698242 24.12573242 C54.93368398 25.93255954 56.59452305 27.79362885 58.24609375 29.71484375 C61.91403623 33.93292917 65.71663762 38.00689798 69.5625 42.0625 C70.97551027 43.55835778 72.38826585 45.05445617 73.80078125 46.55078125 C74.50412598 47.29537598 75.2074707 48.0399707 75.93212891 48.80712891 C83.80893841 57.16008085 91.61784933 65.57622543 99.39599609 74.02099609 C103.3668297 78.326546 107.36696853 82.60407946 111.375 86.875 C112.00132324 87.54257324 112.62764648 88.21014648 113.27294922 88.89794922 C115.82643121 91.61917341 118.38018218 94.34014348 120.93505859 97.06005859 C122.81232456 99.05951629 124.68759735 101.06082636 126.5625 103.0625 C127.40143799 103.95461182 127.40143799 103.95461182 128.25732422 104.86474609 C128.79244629 105.43660645 129.32756836 106.0084668 129.87890625 106.59765625 C130.3385376 107.08758057 130.79816895 107.57750488 131.27172852 108.08227539 C132.9139874 109.9045587 134.51329427 111.75595006 136.10801697 113.61985779 C136.64929702 114.25224082 137.19057707 114.88462385 137.74825954 115.53617001 C138.36787107 116.26076585 138.36787107 116.26076585 139 117 C139.04639632 104.62133627 139.08190632 92.24269333 139.10362434 79.86396027 C139.11404932 74.11565575 139.12818514 68.36741084 139.15087891 62.61914062 C139.17265299 57.06891801 139.1845783 51.51875264 139.18975449 45.9684906 C139.19344203 43.85386759 139.20064287 41.73924761 139.21146011 39.62464905 C139.2260356 36.65659887 139.2279754 33.68878349 139.22705078 30.72070312 C139.23783661 29.41734009 139.23783661 29.41734009 139.24884033 28.08764648 C139.22556807 21.15711691 138.68333517 13.46389104 134 8 C128.22381844 5.263914 122.2724409 4.09253581 116 3 C116.33 2.01 116.66 1.02 117 0 C117.53625 0.0707373 118.0725 0.14147461 118.625 0.21435547 C126.03889096 1.08164658 133.42221339 1.15278359 140.87695312 1.13037109 C142.9961665 1.1250097 145.11516802 1.13034741 147.234375 1.13671875 C154.54320287 1.13992438 161.74683993 0.95677202 169 0 C169 0.99 169 1.98 169 3 C168.11957031 3.18175781 167.23914062 3.36351562 166.33203125 3.55078125 C164.58986328 3.92783203 164.58986328 3.92783203 162.8125 4.3125 C161.08966797 4.67794922 161.08966797 4.67794922 159.33203125 5.05078125 C156.05958962 5.98302429 153.73996174 7.00017104 151 9 C146.70806427 16.81745437 146.85086886 25.23874002 146.87060547 33.95068359 C146.86885315 34.91470596 146.86710083 35.87872833 146.86529541 36.8719635 C146.8609098 40.0474734 146.86380751 43.22292706 146.8671875 46.3984375 C146.86651253 48.63400279 146.8655409 50.86956801 146.86428833 53.10513306 C146.86281497 57.79730933 146.86495067 62.48946657 146.86962891 67.18164062 C146.87526651 73.11793769 146.87208326 79.05418893 146.86605644 84.99048424 C146.86238982 89.61697719 146.86361792 94.24345984 146.86618423 98.86995316 C146.86683991 101.05342235 146.86607415 103.23689256 146.86370468 105.42036057 C146.85027493 121.30149158 147.2861621 137.13500096 148 153 C144.72758503 152.27828883 143.23558987 151.58240067 140.96875 149.078125 C140.1331958 148.16812744 140.1331958 148.16812744 139.28076172 147.23974609 C138.69311035 146.58312988 138.10545898 145.92651367 137.5 145.25 C136.57405029 144.23607178 136.57405029 144.23607178 135.62939453 143.20166016 C134.3580597 141.80896618 133.09000065 140.41327499 131.82519531 139.01464844 C129.68032759 136.64714597 127.51320485 134.30114152 125.34179688 131.95800781 C123.86831025 130.36778024 122.39845908 128.77427019 120.9296875 127.1796875 C117.95536876 123.95105159 114.97789958 120.72533297 112 117.5 C110.99998648 116.41667914 109.99998648 115.33334582 109 114.25 C108.505 113.71375 108.01 113.1775 107.5 112.625 C103 107.75 103 107.75 101.50048828 106.12548828 C100.49891474 105.04047744 99.497287 103.95551662 98.49560547 102.87060547 C96.01923728 100.18834243 93.54376936 97.50526066 91.0703125 94.8203125 C85.71287587 89.00699959 80.33648126 83.21226679 74.9375 77.4375 C69.83014702 71.9738848 64.75731385 66.48087409 59.7109375 60.9609375 C55.92749588 56.82374824 52.11881642 52.70988288 48.3125 48.59375 C45.29776556 45.3284982 42.29548594 42.05187077 39.29296875 38.77539062 C38.5284137 37.94119598 38.5284137 37.94119598 37.74841309 37.09014893 C36.49889684 35.72680739 35.24944223 34.36340937 34 33 C33.97673235 44.24925134 33.95901185 55.49849686 33.94818783 66.74776745 C33.94299037 71.97239729 33.93595032 77.19701055 33.92456055 82.42163086 C33.91361941 87.47261529 33.90769959 92.52358386 33.90512276 97.57457924 C33.9032886 99.49247804 33.89970737 101.41037608 33.89426994 103.32826805 C32.93491182 123.25446192 32.93491182 123.25446192 38 142 C43.04206091 145.87850839 49.84480924 146.15341227 56 147 C56 147.99 56 148.98 56 150 C38.84 150 21.68 150 4 150 C4.33 149.01 4.66 148.02 5 147 C8.46659005 146.06075374 11.9427464 145.53044281 15.484375 144.94140625 C19.38343603 143.89732435 21.25973581 142.95219109 24 140 C26.09036206 134.31105161 26.33786465 129.00983442 26.4140625 122.98828125 C26.43360992 122.00641846 26.45315735 121.02455566 26.47329712 120.01293945 C26.53423251 116.77954537 26.58053151 113.54615981 26.625 110.3125 C26.66101374 108.0542787 26.69714844 105.79605932 26.73339844 103.5378418 C26.82375615 97.58184086 26.896 91.62576862 26.96032715 85.66943359 C26.9868181 83.21922434 27.01457278 80.76902843 27.0435791 78.31884766 C27.1283191 71.12621232 27.19345824 63.93386123 27.23016357 56.74081421 C27.24332071 54.46687603 27.26121604 52.19296003 27.28399658 49.9190979 C27.31377253 46.73368777 27.3236262 43.54881464 27.328125 40.36328125 C27.34042145 39.42895264 27.3527179 38.49462402 27.36538696 37.53198242 C27.3318412 27.55389152 23.91024083 20.20787292 17 13 C11.46263953 8.33743427 5.88973034 5.16898918 -1 3 C-0.67 2.01 -0.34 1.02 0 0 Z " transform="translate(1308,131)" style="fill: rgb(4, 7, 7);"/>
  <path d="M0 0 C1.07436813 0.10841721 1.07436813 0.10841721 2.17044067 0.21902466 C9.78673937 0.92852119 17.28525677 1.09173206 24.9296875 0.9921875 C27.37890212 0.97467258 29.82812113 0.95776417 32.27734375 0.94140625 C36.07743897 0.91051914 39.87730642 0.87497186 43.67724609 0.82861328 C81.81059765 0.38927758 81.81059765 0.38927758 97.4375 12.4375 C105.20394519 20.20394519 108.26506555 27.84948957 108.4375 38.875 C108.34032135 50.18974603 104.82249099 58.8255769 97 67 C84.6873527 78.23753049 68.39291014 82.2070169 52.0625 82.0625 C51.37865234 82.05798828 50.69480469 82.05347656 49.99023438 82.04882812 C48.32678396 82.0371956 46.6633795 82.01926694 45 82 C45.495 80.02 45.495 80.02 46 78 C47.23234375 77.91363281 48.4646875 77.82726562 49.734375 77.73828125 C66.84880122 76.41846311 66.84880122 76.41846311 81 67.375 C88.73581086 57.14254602 89.31781524 45.37359156 88 33 C86.22883064 24.70297134 82.48823412 17.1840541 75.4375 12.25 C65.61515385 6.65569383 53.91319177 5.57918465 43 8 C42.12899662 12.67336809 41.69837744 17.30896825 41.44580078 22.04956055 C41.40369036 22.83112109 41.36157993 23.61268164 41.31819344 24.41792583 C40.84551973 34.01170889 40.85544555 43.60392075 40.8671875 53.20703125 C40.8665114 55.19040438 40.86553884 57.17377742 40.86428833 59.15715027 C40.86282747 63.27917279 40.86491456 67.40117341 40.86962891 71.52319336 C40.8753441 76.77219021 40.87202558 82.0211361 40.86605644 87.27013111 C40.86242303 91.35306677 40.86360181 95.43599058 40.86618423 99.51892662 C40.86684485 101.45356948 40.86605584 103.38821346 40.86370468 105.322855 C40.35464954 124.43287867 40.35464954 124.43287867 44 143 C44.78503906 143.19335938 45.57007813 143.38671875 46.37890625 143.5859375 C51.9491275 144.96653221 57.49622437 146.37388447 63 148 C63 148.66 63 149.32 63 150 C41.88 150 20.76 150 -1 150 C-0.67 149.01 -0.34 148.02 0 147 C1.04800781 146.79503906 2.09601563 146.59007812 3.17578125 146.37890625 C4.55470769 146.10687314 5.93361283 145.83473209 7.3125 145.5625 C8.00279297 145.42779297 8.69308594 145.29308594 9.40429688 145.15429688 C12.34289007 144.57225668 15.15456685 143.94847772 18 143 C23.10215779 131.71699094 21.41487985 117.26876372 21.36328125 105.23828125 C21.36276168 102.8370107 21.36328311 100.43573973 21.36479187 98.0344696 C21.36470256 93.02250754 21.35435434 88.01070768 21.33618164 82.9987793 C21.31345935 76.59353779 21.31296158 70.18853206 21.31969929 63.7832613 C21.32304908 58.83228989 21.31639072 53.88137168 21.30657005 48.93041039 C21.30273799 46.56904568 21.30156151 44.20767503 21.3031559 41.84630775 C21.30352908 38.54236293 21.29083691 35.23871449 21.2746582 31.93481445 C21.27713562 30.9719603 21.27961304 30.00910614 21.28216553 29.01707458 C21.2189364 18.26765336 21.2189364 18.26765336 17.359375 8.484375 C14.15688068 6.46956069 10.92580171 5.84062976 7.25 5.25 C6.55261719 5.12496094 5.85523438 4.99992188 5.13671875 4.87109375 C3.42693324 4.5666114 1.71374215 4.28136065 0 4 C0 2.68 0 1.36 0 0 Z " transform="translate(1040,131)" style="fill: rgb(4, 7, 7);"/>
  <path d="M 0 0 C 1.001 0.044 1.001 0.044 2.021 0.09 C 18.747 0.815 35.441 1.16 52.181 1.13 C 55.829 1.125 59.476 1.13 63.123 1.137 C 77.45 1.14 91.692 0.762 106 0 C 105.67 7.59 105.34 15.18 105 23 C 104.01 23 103.02 23 102 23 C 101.781 22.385 101.562 21.77 101.336 21.137 C 101.019 20.328 100.702 19.52 100.375 18.688 C 100.073 17.887 99.772 17.086 99.461 16.262 C 97.012 12.471 93.266 11.297 88.98 10.292 C 79.354 8.984 69.828 8.573 60.125 8.375 C 58.551 8.337 56.977 8.298 55.402 8.258 C 51.602 8.163 47.801 8.079 44 8 C 42.964 28.657 42.488 49.325 42 70 C 46.356 69.905 50.712 69.799 55.068 69.683 C 56.544 69.645 58.021 69.61 59.498 69.578 C 75.262 70.049 75.262 70.049 89 64 C 90.268 61.415 90.268 61.415 91 59 C 91.99 59 92.98 59 94 59 C 93.928 60.279 93.856 61.558 93.781 62.875 C 93.687 64.583 93.594 66.292 93.5 68 C 93.452 68.839 93.405 69.678 93.355 70.543 C 93.075 75.705 92.952 80.831 93 86 C 91.125 85.875 91.125 85.875 89 85 C 88.629 83.577 88.629 83.577 88.25 82.125 C 87.266 78.637 87.266 78.637 83.477 77.337 C 79 75.813 74.824 75.527 70.125 75.488 C 68.91 75.461 68.91 75.461 67.671 75.434 C 65.114 75.38 62.557 75.346 60 75.313 C 58.254 75.279 56.508 75.245 54.762 75.209 C 50.508 75.125 46.254 75.057 42 75 C 42.12 80.744 42.244 86.487 42.372 92.23 C 42.415 94.178 42.457 96.127 42.497 98.075 C 41.707 119.666 41.519 120.632 42.961 140 C 46.972 141.325 55.101 141.18 59.281 141.203 C 60.091 141.209 60.9 141.215 61.734 141.22 C 63.448 141.23 65.163 141.236 66.878 141.24 C 69.463 141.25 72.048 141.281 74.633 141.313 C 89.867 141.914 89.867 141.914 103.258 136.051 C 105.819 133.037 106.251 129.934 107.094 126.145 C 107.393 125.437 107.692 124.729 108 124 C 110.094 123.199 110.094 123.199 112 123 C 111.695 129.353 110.569 135.401 109.063 141.563 C 108.808 142.635 108.808 142.635 108.548 143.729 C 108.098 145.504 107.556 147.255 107 149 C 104.67 150.165 103.33 150.123 100.735 150.12 C 99.841 150.122 98.946 150.123 98.024 150.124 C 97.04 150.121 96.056 150.117 95.042 150.114 C 94.008 150.114 92.974 150.114 91.909 150.114 C 88.478 150.113 85.048 150.105 81.617 150.098 C 79.244 150.096 76.87 150.094 74.496 150.093 C 68.239 150.09 61.982 150.08 55.725 150.069 C 49.344 150.058 42.963 150.054 36.582 150.049 C 24.055 150.038 11.527 150.021 -1 150 C -0.67 149.01 -0.34 148.02 0 147 C 1.097 146.83 2.194 146.66 3.324 146.484 C 4.779 146.24 6.233 145.996 7.688 145.75 C 8.409 145.64 9.13 145.531 9.873 145.418 C 14.528 144.61 17.852 143.761 21 140 C 23.138 133.109 23.288 126.062 23.259 118.91 C 23.262 117.85 23.266 116.79 23.269 115.698 C 23.278 112.224 23.272 108.751 23.266 105.277 C 23.267 102.847 23.269 100.417 23.271 97.986 C 23.274 92.905 23.27 87.824 23.261 82.743 C 23.249 76.244 23.256 69.746 23.268 63.248 C 23.275 58.233 23.273 53.219 23.268 48.205 C 23.266 45.809 23.268 43.413 23.273 41.017 C 23.278 37.665 23.27 34.313 23.259 30.961 C 23.263 29.98 23.267 29 23.271 27.989 C 23.23 21.339 23.137 14.247 19.383 8.543 C 16.075 6.401 12.703 5.871 8.875 5.313 C 1.15 4.075 1.15 4.075 -1 3 C -0.67 2.01 -0.34 1.02 0 0 Z" transform="translate(244,131)" style="fill: rgb(4, 7, 7);"/>
  <path d="M0 0 C11.37752376 8.68049693 19.22542476 20.70162651 24.48828125 33.8984375 C26.87874145 30.89085553 28.63398998 27.7905309 30.42578125 24.3984375 C38.82551793 9.95863859 52.70361143 -1.02630594 68.87890625 -5.484375 C77.56381857 -6.96945741 88.30779541 -7.8693906 96.48828125 -4.1015625 C96.81828125 -3.1115625 97.14828125 -2.1215625 97.48828125 -1.1015625 C95.87373047 -1.17117187 95.87373047 -1.17117187 94.2265625 -1.2421875 C78.68739196 -1.7158882 67.31163513 1.14684088 55.48828125 11.8984375 C33.58132432 34.14828593 30.94389312 65.91297231 31.09716797 95.39086914 C31.11342265 99.11836397 31.09714392 102.8448011 31.078125 106.57226562 C31.0801048 108.9661482 31.08394299 111.36003013 31.08984375 113.75390625 C31.08377106 114.85606979 31.07769836 115.95823334 31.07144165 117.09379578 C31.1287233 123.38870704 31.72797622 128.20266856 34.48828125 133.8984375 C39.53034216 137.77694589 46.33309049 138.05184977 52.48828125 138.8984375 C52.48828125 139.8884375 52.48828125 140.8784375 52.48828125 141.8984375 C31.69828125 141.8984375 10.90828125 141.8984375 -10.51171875 141.8984375 C-10.51171875 140.9084375 -10.51171875 139.9184375 -10.51171875 138.8984375 C-9.48691406 138.73988281 -8.46210937 138.58132813 -7.40625 138.41796875 C-6.04539209 138.18333808 -4.6847244 137.9476022 -3.32421875 137.7109375 C-2.31391602 137.55915039 -2.31391602 137.55915039 -1.28320312 137.40429688 C3.75536283 136.49489717 6.37587474 134.94866895 9.48828125 130.8984375 C10.44084269 127.33564565 10.62347973 123.95299866 10.64941406 120.27636719 C10.65902161 119.17041199 10.66862915 118.06445679 10.67852783 116.92498779 C10.68277771 115.73544495 10.68702759 114.5459021 10.69140625 113.3203125 C10.69710632 112.08033508 10.7028064 110.84035767 10.7086792 109.56280518 C10.71812429 106.93348033 10.72466123 104.30414367 10.72851562 101.67480469 C10.73500788 97.70491172 10.76914173 93.73539638 10.80078125 89.765625 C10.87759399 71.48160227 10.26739213 54.77687389 2.48828125 37.8984375 C2.21387207 37.29789551 1.93946289 36.69735352 1.65673828 36.07861328 C-5.12042951 21.53898466 -15.40429336 8.1722359 -30.76171875 2.0234375 C-39.56382434 -0.61719418 -47.59078962 -0.86770785 -56.46875 1.4609375 C-58.51171875 1.8984375 -58.51171875 1.8984375 -62.51171875 1.8984375 C-61.48958136 -0.8467315 -60.75298091 -1.95226865 -58.2265625 -3.515625 C-57.31003906 -3.91523438 -56.39351562 -4.31484375 -55.44921875 -4.7265625 C-54.55074219 -5.13132813 -53.65226562 -5.53609375 -52.7265625 -5.953125 C-35.05052508 -12.26752962 -15.57747579 -10.68556227 0 0 Z " transform="translate(1549.51171875,139.1015625)" style="fill: rgb(4, 7, 7);"/>
  <path d="M0 0 C2.58046197 2.27567224 3.70137872 4.27023508 4.875 7.48828125 C5.21457733 8.40647141 5.55415466 9.32466156 5.90402222 10.27067566 C6.26569489 11.27447769 6.62736755 12.27827972 7 13.3125 C7.58226852 14.89681572 7.58226852 14.89681572 8.17630005 16.51313782 C9.01738407 18.8047471 9.85464317 21.09776301 10.6885376 23.39199829 C12.01136096 27.03125547 13.34387483 30.66682628 14.67919922 34.30151367 C16.29824532 38.70980804 17.91539481 43.11877654 19.52911949 47.52902126 C23.62926075 58.73313402 27.77177541 69.92138874 31.93212891 81.10327148 C33.08410949 84.20249065 34.23173003 87.30329682 35.37890625 90.40429688 C37.55795901 96.28027409 39.76702432 102.14430856 42 108 C42.41600464 109.09246033 42.83200928 110.18492065 43.26062012 111.31048584 C44.55345854 114.68506141 45.86380998 118.05231777 47.1796875 121.41796875 C47.7682402 122.95630119 47.7682402 122.95630119 48.36868286 124.52571106 C51.53039379 132.52368092 55.36835942 141.38551965 63 146 C67.53762238 147.83329899 72.16253149 149.21976314 77 150 C77 150.99 77 151.98 77 153 C76.4423999 152.96970703 75.8847998 152.93941406 75.31030273 152.90820312 C55.1093837 151.82916071 35.20573318 152.13676222 15 153 C15 152.01 15 151.02 15 150 C15.98742188 149.80664062 16.97484375 149.61328125 17.9921875 149.4140625 C19.27351563 149.15367187 20.55484375 148.89328125 21.875 148.625 C23.15117188 148.36976563 24.42734375 148.11453125 25.7421875 147.8515625 C29.05924456 147.27762104 29.05924456 147.27762104 31 145 C31.73280785 137.89990617 29.71975069 132.14715698 27.375 125.5 C27.01470703 124.4478833 26.65441406 123.3957666 26.28320312 122.31176758 C23.89969952 115.40329838 21.41451836 108.53131622 18.72802734 101.734375 C17.64995472 98.97233328 17 97.00074866 17 94 C-0.16 94.33 -17.32 94.66 -35 95 C-37.248125 100.40375 -39.49625 105.8075 -41.8125 111.375 C-42.51608643 113.05899902 -43.21967285 114.74299805 -43.94458008 116.47802734 C-50.66283747 130.77357543 -50.66283747 130.77357543 -51 146 C-44.11175931 148.40990104 -44.11175931 148.40990104 -37 150 C-37 150.99 -37 151.98 -37 153 C-38.07636719 152.9278125 -39.15273437 152.855625 -40.26171875 152.78125 C-54.94043754 151.83172883 -69.3306842 152.0161896 -84 153 C-83.67 152.01 -83.34 151.02 -83 150 C-80.13397502 148.93315158 -77.234213 148.21382802 -74.2734375 147.453125 C-66.13173667 143.83890936 -62.22557989 136.60521719 -58.375 128.9375 C-57.86412842 127.93783203 -57.35325684 126.93816406 -56.8269043 125.90820312 C-51.30332897 114.91316959 -46.48094276 103.61361451 -41.67881775 92.29086304 C-38.4634985 84.71596757 -35.17278954 77.17422339 -31.88000488 69.63275146 C-30.81329523 67.18932158 -29.74782639 64.74535386 -28.68261719 62.30126953 C-24.79596718 53.38663593 -20.89605821 44.47789649 -16.984375 35.57421875 C-16.57116501 34.6336412 -16.15795502 33.69306366 -15.73222351 32.72398376 C-13.72706001 28.16061292 -11.72052882 23.59784894 -9.7121582 19.03588867 C-8.98648606 17.38590707 -8.2608185 15.73592345 -7.53515625 14.0859375 C-7.20574036 13.33877975 -6.87632446 12.59162201 -6.53692627 11.82182312 C-6.07790924 10.77765984 -6.07790924 10.77765984 -5.60961914 9.71240234 C-5.32692169 9.07034851 -5.04422424 8.42829468 -4.75296021 7.76678467 C-4.09174717 6.2152803 -3.49263761 4.63761501 -2.90405273 3.05712891 C-2 1 -2 1 0 0 Z M-7 29 C-12.33445351 40.19225459 -17.33220013 51.5166837 -22.21850586 62.91113281 C-23.4544913 65.78957036 -24.69884644 68.6643033 -25.94335938 71.5390625 C-26.73228103 73.37478082 -27.52071141 75.21071037 -28.30859375 77.046875 C-28.6803624 77.90303406 -29.05213104 78.75919312 -29.43516541 79.64129639 C-29.94183495 80.82964081 -29.94183495 80.82964081 -30.45874023 82.04199219 C-30.90672218 83.08332306 -30.90672218 83.08332306 -31.36375427 84.14569092 C-32.1622723 86.1461975 -32.1622723 86.1461975 -32 89 C-16.82 89 -1.64 89 14 89 C12.35535885 81.49485403 12.35535885 81.49485403 10.12060547 74.29663086 C9.760383 73.27625229 9.40016052 72.25587372 9.02902222 71.20457458 C8.64561676 70.13546341 8.2622113 69.06635223 7.8671875 67.96484375 C7.47048859 66.84557999 7.07378967 65.72631622 6.66506958 64.57313538 C5.40664741 61.02614749 4.14094502 57.48180898 2.875 53.9375 C2.01644353 51.52165617 1.1583656 49.10564222 0.30078125 46.68945312 C-1.79394629 40.79098907 -3.89464466 34.89467843 -6 29 C-6.33 29 -6.66 29 -7 29 Z " transform="translate(1227,128)" style="fill: rgb(4, 7, 7);"/>
  <path d="M0 0 C2.31 1.98 4.62 3.96 7 6 C5.83073209 10.67707166 3.88965485 12.18556079 0.3125 15.0625 C-0.26113281 15.53421631 -0.83476562 16.00593262 -1.42578125 16.49194336 C-3.27532746 18.00545865 -5.13699868 19.50309064 -7 21 C-7.6285791 21.51175781 -8.2571582 22.02351563 -8.90478516 22.55078125 C-10.76320437 24.06316979 -12.62961654 25.56494214 -14.5 27.0625 C-15.07451904 27.5272876 -15.64903809 27.9920752 -16.2409668 28.47094727 C-19.35750624 30.93045933 -22.22162836 32.75229145 -26 34 C-25.40713105 30.19866379 -23.71634147 28.14840128 -21.25 25.25 C-20.44820313 24.29609375 -19.64640625 23.3421875 -18.8203125 22.359375 C-18.37461914 21.83150391 -17.92892578 21.30363281 -17.46972656 20.75976562 C-14.0667282 16.6852121 -10.75975613 12.5304896 -7.43066406 8.39550781 C-6.89924805 7.73905273 -6.36783203 7.08259766 -5.8203125 6.40625 C-5.34867676 5.82166016 -4.87704102 5.23707031 -4.39111328 4.63476562 C-3.01189196 3.01397483 -1.50486116 1.50486116 0 0 Z " transform="translate(308,82)" style="fill: rgb(4, 7, 7);"/>
</svg>