<?xml version="1.0" encoding="utf-8"?>
<svg width="177" height="24" viewBox="0 0 177 24" fill="none" xmlns="http://www.w3.org/2000/svg">
  <defs/>
  <path d="M 87.932 7.45 C 89.126 7.51 90.319 7.572 91.549 7.635 C 92.402 9.34 92.402 9.34 92.659 9.907 C 92.69 9.973 92.72 10.039 92.752 10.105 C 92.847 10.316 92.943 10.525 93.039 10.736 C 93.107 10.886 93.176 11.036 93.245 11.187 C 93.453 11.641 93.66 12.095 93.868 12.55 C 93.899 12.618 93.93 12.686 93.962 12.757 C 94.493 13.924 95.024 15.09 95.552 16.258 C 95.682 16.545 95.811 16.832 95.942 17.119 C 96.003 17.256 96.066 17.393 96.128 17.532 C 96.213 17.721 96.3 17.91 96.386 18.1 C 96.434 18.208 96.483 18.316 96.534 18.428 C 96.628 18.658 96.628 18.658 96.742 18.763 C 98.705 14.187 98.705 14.187 100.585 9.577 C 100.626 9.476 100.666 9.376 100.706 9.271 C 100.928 8.702 101.122 8.131 101.286 7.542 C 101.356 7.543 101.424 7.544 101.496 7.544 C 103.294 7.562 103.294 7.562 105.089 7.45 C 105.089 7.541 105.089 7.633 105.089 7.728 C 104.756 7.894 104.366 7.895 104.001 7.941 C 103.546 8.038 103.306 8.175 103.049 8.562 C 102.957 8.903 102.944 9.226 102.943 9.578 C 102.943 9.69 102.943 9.803 102.943 9.919 C 102.943 10.045 102.944 10.17 102.945 10.295 C 102.945 10.36 102.945 10.425 102.945 10.491 C 102.948 12.481 102.995 14.471 103.042 16.46 C 103.049 16.706 103.053 16.952 103.059 17.198 C 103.068 17.599 103.078 17.998 103.089 18.398 C 103.092 18.51 103.095 18.622 103.096 18.739 C 103.095 19.767 103.095 19.767 103.522 20.66 C 103.864 20.843 104.18 20.908 104.562 20.965 C 104.63 20.977 104.699 20.989 104.769 21 C 104.937 21.029 105.106 21.056 105.274 21.082 C 105.305 21.174 105.336 21.265 105.367 21.36 C 103.409 21.36 101.45 21.36 99.432 21.36 C 99.462 21.268 99.493 21.177 99.525 21.082 C 99.788 21.003 99.788 21.003 100.115 20.943 C 100.524 20.872 100.524 20.872 100.896 20.702 C 101.256 20.134 101.22 19.425 101.216 18.779 C 101.216 18.632 101.216 18.632 101.216 18.483 C 101.215 18.163 101.213 17.843 101.211 17.523 C 101.211 17.301 101.21 17.079 101.209 16.857 C 101.201 14.618 101.156 12.377 101.101 10.139 C 101.039 10.288 101.039 10.288 100.974 10.439 C 99.783 13.273 98.575 16.1 97.362 18.925 C 97.001 19.767 96.639 20.61 96.279 21.452 C 96.105 21.426 96.105 21.426 95.908 21.36 C 95.765 21.116 95.648 20.884 95.535 20.626 C 95.5 20.551 95.465 20.475 95.429 20.397 C 95.315 20.146 95.203 19.896 95.09 19.645 C 95.011 19.47 94.931 19.295 94.852 19.121 C 94.652 18.681 94.453 18.241 94.256 17.801 C 94.097 17.451 93.938 17.101 93.779 16.751 C 93.612 16.385 93.446 16.02 93.28 15.655 C 92.557 14.058 91.821 12.47 91.085 10.88 C 91 11.172 90.979 11.439 90.974 11.742 C 90.972 11.841 90.97 11.939 90.967 12.04 C 90.967 12.147 90.965 12.254 90.963 12.363 C 90.961 12.475 90.959 12.586 90.958 12.7 C 90.951 13.062 90.946 13.423 90.94 13.785 C 90.939 13.907 90.937 14.029 90.935 14.154 C 90.922 14.98 90.911 15.805 90.9 16.63 C 90.899 16.721 90.897 16.811 90.896 16.904 C 90.89 17.386 90.885 17.87 90.883 18.352 C 90.881 18.461 90.881 18.571 90.879 18.683 C 90.871 19.707 90.871 19.707 91.286 20.614 C 91.601 20.841 91.846 20.905 92.227 20.972 C 92.344 20.993 92.46 21.015 92.58 21.037 C 92.668 21.052 92.756 21.066 92.847 21.082 C 92.847 21.174 92.847 21.265 92.847 21.36 C 91.286 21.36 89.726 21.36 88.118 21.36 C 88.118 21.268 88.118 21.177 88.118 21.082 C 88.221 21.058 88.325 21.035 88.433 21.01 C 88.569 20.978 88.706 20.946 88.842 20.914 C 88.945 20.89 88.945 20.89 89.05 20.868 C 89.532 20.759 89.532 20.759 89.88 20.432 C 90.176 19.743 90.171 18.966 90.185 18.225 C 90.188 18.149 90.19 18.072 90.191 17.992 C 90.197 17.74 90.202 17.489 90.208 17.237 C 90.211 17.061 90.216 16.884 90.219 16.707 C 90.228 16.337 90.237 15.968 90.244 15.598 C 90.255 15.127 90.266 14.656 90.276 14.185 C 90.284 13.82 90.293 13.455 90.3 13.09 C 90.304 12.917 90.308 12.743 90.312 12.57 C 90.518 10.401 90.518 10.401 89.788 8.47 C 89.245 8.009 88.617 7.868 87.932 7.728 C 87.932 7.636 87.932 7.544 87.932 7.45 Z" style="fill: rgb(3, 3, 3);"/>
  <path d="M 15.225 2.998 C 15.446 3.007 15.663 3.021 15.884 3.038 C 16.642 3.091 17.397 3.104 18.157 3.103 C 18.295 3.103 18.432 3.103 18.57 3.103 C 18.939 3.104 19.307 3.103 19.676 3.103 C 20.065 3.103 20.455 3.103 20.844 3.103 C 21.497 3.103 22.149 3.103 22.802 3.103 C 23.553 3.103 24.304 3.103 25.055 3.103 C 25.704 3.103 26.353 3.103 27.002 3.103 C 27.388 3.103 27.773 3.103 28.159 3.103 C 28.522 3.104 28.885 3.103 29.249 3.103 C 29.38 3.103 29.511 3.103 29.644 3.103 C 30.56 3.105 31.469 3.064 32.382 2.998 C 32.504 3.241 32.451 3.332 32.389 3.594 C 32.232 4.377 32.275 5.172 32.29 5.965 C 32.198 5.965 32.106 5.965 32.012 5.965 C 31.991 5.898 31.971 5.829 31.95 5.759 C 31.757 5.165 31.621 4.812 31.084 4.481 C 29.815 3.859 28.203 3.982 26.824 3.96 C 26.633 3.956 26.443 3.953 26.253 3.949 C 25.792 3.941 25.332 3.933 24.87 3.925 C 24.878 5.906 24.887 7.887 24.897 9.868 C 24.902 10.787 24.906 11.707 24.91 12.627 C 24.913 13.428 24.916 14.23 24.922 15.031 C 24.923 15.456 24.925 15.88 24.926 16.305 C 24.928 16.705 24.93 17.104 24.933 17.505 C 24.933 17.651 24.933 17.797 24.934 17.944 C 24.914 19.234 24.914 19.234 25.334 20.432 C 25.771 20.711 26.212 20.79 26.714 20.868 C 26.823 20.886 26.823 20.886 26.934 20.904 C 27.112 20.933 27.289 20.961 27.467 20.989 C 27.467 21.081 27.467 21.173 27.467 21.268 C 27.374 21.261 27.281 21.253 27.185 21.247 C 24.817 21.095 22.416 21.118 20.048 21.268 C 20.048 21.176 20.048 21.084 20.048 20.989 C 20.162 20.973 20.277 20.958 20.394 20.942 C 20.545 20.919 20.697 20.896 20.849 20.873 C 20.924 20.862 20.999 20.853 21.075 20.842 C 21.557 20.768 21.889 20.659 22.274 20.34 C 22.758 19.471 22.66 18.45 22.664 17.486 C 22.665 17.337 22.666 17.189 22.667 17.041 C 22.67 16.641 22.671 16.24 22.673 15.84 C 22.675 15.421 22.678 15.001 22.681 14.582 C 22.685 13.79 22.689 12.997 22.693 12.204 C 22.698 11.301 22.702 10.398 22.708 9.496 C 22.718 7.639 22.728 5.782 22.737 3.925 C 22.182 3.934 21.626 3.944 21.071 3.955 C 20.882 3.958 20.694 3.962 20.505 3.965 C 18.138 3.899 18.138 3.899 16.066 4.824 C 15.838 5.19 15.71 5.551 15.597 5.965 C 15.505 5.965 15.413 5.965 15.319 5.965 C 15.322 5.795 15.322 5.795 15.325 5.62 C 15.336 4.822 15.331 4.065 15.165 3.281 C 15.149 3.187 15.149 3.187 15.133 3.091 C 15.164 3.06 15.195 3.03 15.225 2.998 Z" style="fill: rgb(3, 3, 3);"/>
  <path d="M 68.214 4.43 C 68.669 4.866 68.703 5.511 68.753 6.105 C 68.76 6.186 68.767 6.265 68.775 6.349 C 68.837 7.057 68.848 7.759 68.828 8.47 C 68.737 8.47 68.645 8.47 68.55 8.47 C 68.52 8.367 68.52 8.367 68.488 8.262 C 67.98 6.633 67.1 5.409 65.582 4.574 C 63.746 3.675 61.555 3.583 59.62 4.21 C 57.839 4.908 56.557 6.147 55.769 7.878 C 54.89 9.964 54.787 12.504 55.382 14.683 C 55.4 14.75 55.418 14.819 55.437 14.889 C 55.832 16.289 56.45 17.482 57.422 18.578 C 57.477 18.641 57.531 18.704 57.588 18.77 C 58.825 20.112 60.7 20.9 62.503 21.004 C 64.207 21.052 65.914 20.544 67.2 19.396 C 68.018 18.552 68.526 17.524 68.643 16.352 C 68.765 16.352 68.887 16.352 69.014 16.352 C 68.992 16.717 68.969 17.081 68.945 17.445 C 68.934 17.629 68.922 17.813 68.91 17.996 C 68.786 19.893 68.786 19.893 68.423 20.322 C 68.272 20.422 68.272 20.422 68.086 20.525 C 68.009 20.57 67.932 20.617 67.851 20.664 C 66.29 21.512 64.519 21.675 62.772 21.667 C 62.678 21.667 62.678 21.667 62.583 21.667 C 60.139 21.656 57.72 21.064 55.845 19.412 C 55.77 19.351 55.696 19.29 55.618 19.226 C 54.083 17.92 53.075 16.026 52.785 14.034 C 52.609 11.164 53.23 8.766 55.155 6.586 C 55.291 6.441 55.429 6.295 55.567 6.151 C 55.625 6.087 55.682 6.024 55.742 5.958 C 58.872 2.625 64.32 2.424 68.214 4.43 Z" style="fill: rgb(3, 3, 3);"/>
  <path d="M 78.819 7.16 C 80.946 7.113 82.915 7.784 84.463 9.252 C 85.799 10.573 86.498 12.338 86.544 14.205 C 86.55 16.129 85.75 17.908 84.433 19.295 C 84.364 19.365 84.294 19.434 84.223 19.505 C 84.159 19.57 84.096 19.635 84.03 19.701 C 82.385 21.27 80.272 21.701 78.074 21.666 C 76.075 21.599 74.401 20.68 73.03 19.256 C 71.743 17.761 71.207 15.9 71.333 13.941 C 71.499 12.475 72.064 11.179 73.002 10.046 C 73.064 9.968 73.125 9.89 73.189 9.81 C 74.433 8.324 76.258 7.446 78.166 7.195 C 78.383 7.178 78.601 7.17 78.819 7.16 Z M 74.488 9.594 C 73.265 11.053 72.978 12.983 73.12 14.825 C 73.354 16.926 74.185 18.681 75.819 20.05 C 77.04 20.936 78.491 21.29 79.982 21.14 C 81.464 20.89 82.668 20.235 83.58 19.029 C 84.783 17.243 84.984 15.021 84.576 12.932 C 84.526 12.742 84.469 12.553 84.408 12.365 C 84.376 12.263 84.343 12.161 84.31 12.056 C 83.715 10.369 82.557 8.997 80.942 8.208 C 78.599 7.223 76.205 7.741 74.488 9.594 Z" style="fill: rgb(3, 3, 3);"/>
  <path d="M 132.632 7.45 C 133.039 7.455 133.446 7.467 133.854 7.482 C 133.992 7.488 134.13 7.491 134.268 7.492 C 135.563 7.511 135.563 7.511 136.091 8.037 C 136.21 8.179 136.323 8.323 136.435 8.47 C 136.546 8.598 136.658 8.725 136.77 8.852 C 136.822 8.913 136.874 8.974 136.927 9.035 C 137.129 9.264 137.344 9.474 137.561 9.687 C 137.726 9.854 137.88 10.027 138.033 10.205 C 138.374 10.596 138.726 10.974 139.083 11.35 C 139.214 11.489 139.345 11.628 139.476 11.766 C 139.541 11.835 139.607 11.904 139.674 11.975 C 140.404 12.75 141.128 13.531 141.85 14.314 C 142.218 14.713 142.589 15.11 142.96 15.506 C 143.019 15.568 143.077 15.63 143.137 15.694 C 143.374 15.946 143.61 16.198 143.847 16.45 C 144.022 16.636 144.195 16.822 144.368 17.007 C 144.447 17.09 144.447 17.09 144.526 17.174 C 144.576 17.227 144.626 17.281 144.677 17.335 C 144.72 17.381 144.761 17.426 144.806 17.473 C 144.958 17.642 145.106 17.814 145.255 17.986 C 145.304 18.045 145.355 18.103 145.406 18.164 C 145.464 18.232 145.464 18.232 145.522 18.3 C 145.527 17.152 145.53 16.003 145.532 14.856 C 145.533 14.322 145.534 13.789 145.536 13.257 C 145.539 12.742 145.539 12.227 145.54 11.712 C 145.541 11.516 145.541 11.32 145.542 11.124 C 145.544 10.849 145.544 10.573 145.544 10.299 C 145.545 10.178 145.545 10.178 145.546 10.054 C 145.544 9.412 145.493 8.698 145.059 8.191 C 144.523 7.937 143.971 7.829 143.39 7.728 C 143.42 7.636 143.451 7.544 143.482 7.45 C 143.532 7.456 143.582 7.462 143.633 7.47 C 144.321 7.55 145.005 7.556 145.696 7.554 C 145.893 7.554 146.089 7.554 146.286 7.555 C 146.964 7.555 147.631 7.538 148.304 7.45 C 148.304 7.541 148.304 7.633 148.304 7.728 C 148.223 7.745 148.142 7.761 148.058 7.778 C 147.896 7.814 147.896 7.814 147.731 7.85 C 147.571 7.883 147.571 7.883 147.408 7.918 C 147.105 8.004 146.89 8.098 146.635 8.284 C 146.237 9.009 146.25 9.79 146.253 10.598 C 146.253 10.687 146.252 10.777 146.252 10.869 C 146.251 11.163 146.252 11.458 146.252 11.752 C 146.252 11.96 146.252 12.167 146.252 12.375 C 146.252 12.809 146.252 13.244 146.253 13.68 C 146.253 14.23 146.253 14.781 146.252 15.331 C 146.252 15.76 146.252 16.189 146.252 16.618 C 146.252 16.821 146.252 17.024 146.252 17.225 C 146.25 18.699 146.291 20.168 146.358 21.638 C 146.054 21.571 145.916 21.506 145.705 21.274 C 145.628 21.19 145.628 21.19 145.548 21.103 C 145.494 21.043 145.44 20.982 145.384 20.919 C 145.298 20.825 145.298 20.825 145.209 20.729 C 145.092 20.6 144.975 20.471 144.857 20.341 C 144.658 20.122 144.457 19.904 144.256 19.687 C 144.119 19.54 143.983 19.392 143.846 19.243 C 143.571 18.944 143.294 18.645 143.018 18.346 C 142.926 18.245 142.833 18.145 142.741 18.045 C 142.695 17.995 142.649 17.945 142.601 17.894 C 142.184 17.442 142.184 17.442 142.045 17.291 C 141.952 17.19 141.859 17.09 141.766 16.99 C 141.537 16.74 141.306 16.492 141.078 16.243 C 140.581 15.703 140.082 15.167 139.582 14.631 C 139.108 14.124 138.638 13.615 138.17 13.103 C 137.818 12.719 137.465 12.338 137.112 11.955 C 136.833 11.653 136.555 11.349 136.276 11.045 C 136.205 10.968 136.205 10.968 136.133 10.889 C 136.016 10.762 135.901 10.636 135.785 10.509 C 135.782 11.553 135.781 12.596 135.78 13.639 C 135.78 14.123 135.779 14.609 135.778 15.093 C 135.777 15.562 135.776 16.029 135.776 16.498 C 135.776 16.676 135.775 16.854 135.775 17.032 C 135.687 18.88 135.687 18.88 136.156 20.618 C 136.623 20.978 137.255 21.003 137.826 21.082 C 137.826 21.174 137.826 21.265 137.826 21.36 C 136.234 21.36 134.642 21.36 133.003 21.36 C 133.034 21.268 133.064 21.177 133.095 21.082 C 133.417 20.995 133.739 20.945 134.068 20.89 C 134.429 20.794 134.604 20.706 134.857 20.432 C 135.052 19.906 135.074 19.413 135.081 18.855 C 135.083 18.764 135.085 18.673 135.087 18.58 C 135.092 18.279 135.097 17.979 135.101 17.679 C 135.104 17.47 135.108 17.261 135.111 17.051 C 135.12 16.499 135.127 15.947 135.132 15.394 C 135.135 15.167 135.137 14.94 135.14 14.712 C 135.148 14.046 135.154 13.379 135.157 12.712 C 135.158 12.501 135.16 12.29 135.162 12.079 C 135.164 11.783 135.166 11.488 135.166 11.193 C 135.167 11.106 135.169 11.02 135.17 10.93 C 135.166 10.004 134.849 9.323 134.209 8.656 C 133.695 8.222 133.178 7.929 132.539 7.728 C 132.57 7.636 132.601 7.544 132.632 7.45 Z" style="fill: rgb(3, 3, 3);"/>
  <path d="M 107.778 7.45 C 107.878 7.459 107.878 7.459 107.98 7.47 C 108.685 7.535 109.381 7.55 110.09 7.541 C 110.317 7.54 110.544 7.538 110.771 7.536 C 111.124 7.534 111.477 7.531 111.829 7.526 C 115.365 7.485 115.365 7.485 116.814 8.603 C 117.534 9.323 117.819 10.031 117.835 11.055 C 117.826 12.104 117.499 12.905 116.774 13.663 C 115.632 14.705 114.121 15.074 112.606 15.059 C 112.542 15.059 112.479 15.059 112.414 15.058 C 112.26 15.057 112.105 15.056 111.952 15.054 C 111.997 14.87 111.997 14.87 112.044 14.683 C 112.159 14.675 112.273 14.666 112.391 14.659 C 113.978 14.536 113.978 14.536 115.29 13.697 C 116.007 12.749 116.061 11.657 115.939 10.509 C 115.775 9.74 115.428 9.043 114.774 8.585 C 113.863 8.067 112.778 7.967 111.766 8.191 C 111.685 8.625 111.645 9.055 111.622 9.494 C 111.618 9.566 111.614 9.639 111.61 9.713 C 111.567 10.603 111.567 11.493 111.568 12.384 C 111.568 12.568 111.568 12.751 111.568 12.936 C 111.568 13.318 111.568 13.7 111.569 14.082 C 111.569 14.569 111.569 15.056 111.568 15.543 C 111.568 15.921 111.568 16.3 111.568 16.679 C 111.568 16.858 111.568 17.038 111.568 17.216 C 111.521 18.989 111.521 18.989 111.859 20.71 C 111.932 20.729 112.004 20.747 112.079 20.766 C 112.596 20.893 113.11 21.024 113.621 21.175 C 113.621 21.235 113.621 21.297 113.621 21.36 C 111.663 21.36 109.703 21.36 107.685 21.36 C 107.716 21.268 107.747 21.177 107.778 21.082 C 107.875 21.063 107.973 21.044 108.073 21.024 C 108.2 20.999 108.328 20.974 108.456 20.949 C 108.521 20.936 108.584 20.924 108.65 20.911 C 108.923 20.857 109.184 20.799 109.448 20.71 C 109.921 19.664 109.764 18.325 109.759 17.208 C 109.759 16.986 109.759 16.764 109.759 16.541 C 109.759 16.076 109.758 15.611 109.758 15.146 C 109.755 14.553 109.755 13.958 109.755 13.365 C 109.756 12.906 109.755 12.446 109.754 11.987 C 109.754 11.768 109.754 11.549 109.754 11.33 C 109.754 11.024 109.752 10.718 109.751 10.411 C 109.751 10.322 109.752 10.233 109.752 10.141 C 109.746 9.143 109.746 9.143 109.388 8.236 C 109.091 8.049 108.791 7.991 108.45 7.937 C 108.385 7.925 108.321 7.913 108.254 7.901 C 108.096 7.873 107.937 7.846 107.778 7.82 C 107.778 7.698 107.778 7.576 107.778 7.45 Z" style="fill: rgb(3, 3, 3);"/>
  <path d="M 33.959 7.45 C 34.052 7.453 34.052 7.453 34.146 7.458 C 35.697 7.525 37.246 7.557 38.798 7.554 C 39.136 7.554 39.474 7.554 39.813 7.555 C 41.141 7.555 42.462 7.52 43.789 7.45 C 43.759 8.153 43.728 8.857 43.696 9.582 C 43.604 9.582 43.513 9.582 43.418 9.582 C 43.397 9.525 43.378 9.469 43.357 9.409 C 43.327 9.334 43.298 9.259 43.267 9.182 C 43.239 9.108 43.211 9.034 43.182 8.957 C 42.956 8.606 42.609 8.497 42.21 8.404 C 41.318 8.283 40.434 8.245 39.535 8.227 C 39.389 8.222 39.243 8.219 39.097 8.215 C 38.744 8.207 38.392 8.199 38.039 8.191 C 37.943 10.106 37.899 12.024 37.855 13.941 C 38.257 13.932 38.662 13.922 39.066 13.912 C 39.202 13.908 39.34 13.905 39.477 13.902 C 40.939 13.945 40.939 13.945 42.213 13.385 C 42.33 13.145 42.33 13.145 42.397 12.921 C 42.49 12.921 42.582 12.921 42.677 12.921 C 42.669 13.039 42.663 13.159 42.656 13.281 C 42.648 13.439 42.639 13.597 42.63 13.756 C 42.625 13.833 42.621 13.911 42.616 13.992 C 42.591 14.469 42.579 14.945 42.583 15.425 C 42.409 15.413 42.409 15.413 42.213 15.332 C 42.178 15.2 42.178 15.2 42.143 15.066 C 42.051 14.742 42.051 14.742 41.7 14.622 C 41.285 14.48 40.898 14.453 40.462 14.45 C 40.35 14.448 40.35 14.448 40.235 14.445 C 39.997 14.44 39.76 14.437 39.523 14.434 C 39.361 14.431 39.2 14.428 39.037 14.424 C 38.643 14.416 38.248 14.41 37.855 14.404 C 37.865 14.937 37.876 15.469 37.889 16.003 C 37.893 16.183 37.896 16.364 37.9 16.544 C 37.827 18.547 37.809 18.636 37.943 20.432 C 38.315 20.556 39.07 20.542 39.456 20.544 C 39.532 20.544 39.607 20.545 39.684 20.546 C 39.843 20.547 40.002 20.547 40.161 20.548 C 40.401 20.549 40.64 20.551 40.881 20.554 C 42.293 20.61 42.293 20.61 43.535 20.066 C 43.772 19.787 43.812 19.499 43.891 19.148 C 43.919 19.082 43.946 19.017 43.975 18.949 C 44.169 18.875 44.169 18.875 44.345 18.857 C 44.317 19.445 44.213 20.006 44.073 20.578 C 44.05 20.677 44.05 20.677 44.025 20.778 C 43.984 20.943 43.933 21.106 43.882 21.268 C 43.666 21.375 43.542 21.372 43.301 21.371 C 43.218 21.371 43.135 21.372 43.05 21.372 C 42.958 21.371 42.867 21.371 42.772 21.371 C 42.677 21.371 42.581 21.371 42.482 21.371 C 42.164 21.371 41.846 21.37 41.528 21.369 C 41.308 21.369 41.088 21.368 40.867 21.368 C 40.287 21.368 39.707 21.367 39.126 21.366 C 38.536 21.365 37.943 21.365 37.351 21.364 C 36.19 21.364 35.028 21.362 33.866 21.36 C 33.897 21.268 33.927 21.177 33.959 21.082 C 34.061 21.066 34.163 21.05 34.267 21.034 C 34.402 21.011 34.538 20.989 34.672 20.965 C 34.739 20.956 34.806 20.945 34.875 20.935 C 35.306 20.86 35.614 20.781 35.907 20.432 C 36.105 19.794 36.118 19.14 36.116 18.477 C 36.117 18.379 36.117 18.281 36.117 18.179 C 36.117 17.857 36.117 17.534 36.117 17.213 C 36.117 16.987 36.117 16.761 36.117 16.537 C 36.117 16.066 36.117 15.594 36.116 15.123 C 36.115 14.52 36.116 13.917 36.117 13.315 C 36.117 12.85 36.117 12.385 36.117 11.92 C 36.117 11.698 36.117 11.476 36.117 11.254 C 36.117 10.942 36.117 10.631 36.116 10.32 C 36.117 10.23 36.117 10.139 36.117 10.045 C 36.113 9.428 36.105 8.77 35.757 8.242 C 35.45 8.043 35.136 7.993 34.782 7.942 C 34.065 7.827 34.065 7.827 33.866 7.728 C 33.897 7.636 33.927 7.544 33.959 7.45 Z" style="fill: rgb(3, 3, 3);"/>
  <path d="M 155.029 8.201 C 156.085 9.006 156.812 10.121 157.3 11.345 C 157.522 11.066 157.684 10.778 157.851 10.463 C 158.63 9.124 159.917 8.105 161.417 7.693 C 162.222 7.554 163.219 7.47 163.977 7.82 C 164.008 7.912 164.038 8.004 164.07 8.098 C 163.92 8.092 163.92 8.092 163.767 8.086 C 162.327 8.042 161.272 8.307 160.175 9.304 C 158.143 11.367 157.898 14.313 157.913 17.047 C 157.915 17.393 157.913 17.739 157.911 18.084 C 157.911 18.307 157.912 18.528 157.912 18.75 C 157.912 18.852 157.911 18.954 157.91 19.06 C 157.916 19.644 157.972 20.09 158.227 20.618 C 158.695 20.978 159.327 21.003 159.897 21.082 C 159.897 21.174 159.897 21.265 159.897 21.36 C 157.969 21.36 156.04 21.36 154.055 21.36 C 154.055 21.268 154.055 21.177 154.055 21.082 C 154.15 21.067 154.245 21.052 154.343 21.037 C 154.469 21.016 154.595 20.993 154.721 20.972 C 154.815 20.958 154.815 20.958 154.91 20.944 C 155.377 20.859 155.62 20.715 155.908 20.34 C 155.998 20.01 156.014 19.696 156.017 19.355 C 156.018 19.253 156.019 19.15 156.02 19.044 C 156.02 18.934 156.02 18.823 156.021 18.71 C 156.021 18.595 156.021 18.479 156.022 18.361 C 156.023 18.117 156.023 17.873 156.024 17.63 C 156.025 17.262 156.028 16.893 156.03 16.525 C 156.038 14.83 155.982 13.281 155.26 11.715 C 155.235 11.66 155.208 11.604 155.183 11.546 C 154.554 10.198 153.6 8.959 152.177 8.388 C 151.36 8.143 150.616 8.12 149.792 8.337 C 149.602 8.376 149.602 8.376 149.232 8.376 C 149.327 8.122 149.395 8.02 149.629 7.875 C 149.714 7.838 149.799 7.801 149.887 7.762 C 149.97 7.725 150.054 7.687 150.14 7.648 C 151.778 7.063 153.584 7.209 155.029 8.201 Z" style="fill: rgb(3, 3, 3);"/>
  <path d="M 125.12 7.171 C 125.36 7.382 125.464 7.567 125.572 7.866 C 125.604 7.951 125.635 8.036 125.668 8.124 C 125.701 8.217 125.735 8.31 125.769 8.405 C 125.823 8.553 125.823 8.553 125.878 8.703 C 125.956 8.915 126.035 9.128 126.111 9.34 C 126.234 9.678 126.358 10.015 126.482 10.352 C 126.632 10.761 126.782 11.17 126.932 11.579 C 127.311 12.618 127.696 13.656 128.082 14.693 C 128.189 14.98 128.295 15.268 128.401 15.555 C 128.603 16.1 128.808 16.644 129.015 17.188 C 129.053 17.288 129.092 17.389 129.132 17.494 C 129.251 17.807 129.373 18.119 129.495 18.431 C 129.55 18.573 129.55 18.573 129.605 18.72 C 129.899 19.461 130.255 20.283 130.962 20.71 C 131.384 20.881 131.812 21.009 132.261 21.082 C 132.261 21.174 132.261 21.265 132.261 21.36 C 132.21 21.357 132.157 21.355 132.104 21.352 C 130.231 21.252 128.385 21.28 126.512 21.36 C 126.512 21.268 126.512 21.177 126.512 21.082 C 126.603 21.064 126.695 21.046 126.789 21.028 C 126.908 21.003 127.026 20.98 127.149 20.954 C 127.267 20.931 127.386 20.907 127.508 20.883 C 127.815 20.83 127.815 20.83 127.995 20.618 C 128.063 19.96 127.876 19.426 127.659 18.81 C 127.625 18.712 127.592 18.615 127.558 18.514 C 127.336 17.873 127.106 17.236 126.857 16.606 C 126.757 16.349 126.697 16.167 126.697 15.889 C 125.106 15.919 123.514 15.949 121.875 15.982 C 121.666 16.483 121.457 16.983 121.242 17.5 C 121.177 17.655 121.112 17.813 121.045 17.973 C 120.422 19.299 120.422 19.299 120.391 20.71 C 121.029 20.935 121.029 20.935 121.689 21.082 C 121.689 21.174 121.689 21.265 121.689 21.36 C 121.589 21.354 121.489 21.347 121.386 21.34 C 120.025 21.252 118.691 21.269 117.33 21.36 C 117.361 21.268 117.392 21.177 117.423 21.082 C 117.689 20.982 117.957 20.916 118.233 20.846 C 118.987 20.511 119.35 19.84 119.707 19.128 C 119.754 19.036 119.802 18.943 119.85 18.847 C 120.363 17.828 120.81 16.78 121.255 15.73 C 121.553 15.028 121.858 14.328 122.164 13.629 C 122.262 13.403 122.362 13.175 122.46 12.948 C 122.821 12.122 123.182 11.296 123.545 10.47 C 123.584 10.383 123.622 10.296 123.662 10.206 C 123.847 9.783 124.034 9.36 124.22 8.937 C 124.287 8.784 124.354 8.63 124.421 8.478 C 124.452 8.408 124.483 8.339 124.513 8.267 C 124.557 8.171 124.557 8.171 124.6 8.072 C 124.626 8.012 124.652 7.953 124.68 7.891 C 124.741 7.748 124.796 7.601 124.85 7.454 C 124.935 7.264 124.935 7.264 125.12 7.171 Z M 124.471 9.861 C 123.976 10.899 123.512 11.949 123.06 13.005 C 122.945 13.272 122.83 13.539 122.714 13.805 C 122.641 13.976 122.569 14.146 122.495 14.317 C 122.461 14.395 122.426 14.475 122.391 14.557 C 122.344 14.667 122.344 14.667 122.296 14.779 C 122.254 14.876 122.254 14.876 122.212 14.975 C 122.138 15.16 122.138 15.16 122.152 15.425 C 123.56 15.425 124.968 15.425 126.418 15.425 C 126.266 14.729 126.266 14.729 126.059 14.061 C 126.026 13.966 125.992 13.872 125.958 13.775 C 125.922 13.675 125.886 13.576 125.85 13.474 C 125.812 13.37 125.776 13.267 125.738 13.16 C 125.622 12.831 125.504 12.502 125.387 12.173 C 125.307 11.949 125.228 11.725 125.148 11.501 C 124.953 10.954 124.759 10.407 124.564 9.861 C 124.533 9.861 124.503 9.861 124.471 9.861 Z" style="fill: rgb(3, 3, 3);"/>
  <path d="M 39.894 2.905 C 40.108 3.088 40.322 3.273 40.544 3.461 C 40.434 3.895 40.255 4.035 39.923 4.302 C 39.87 4.346 39.817 4.39 39.762 4.434 C 39.591 4.575 39.418 4.713 39.245 4.853 C 39.186 4.9 39.128 4.947 39.069 4.996 C 38.896 5.137 38.723 5.276 38.549 5.415 C 38.496 5.458 38.443 5.501 38.388 5.545 C 38.099 5.774 37.833 5.942 37.483 6.059 C 37.538 5.706 37.695 5.516 37.923 5.247 C 37.997 5.158 38.072 5.069 38.149 4.979 C 38.191 4.929 38.231 4.881 38.274 4.83 C 38.589 4.452 38.896 4.068 39.205 3.684 C 39.254 3.622 39.304 3.562 39.355 3.499 C 39.398 3.445 39.442 3.391 39.487 3.335 C 39.614 3.185 39.755 3.044 39.894 2.905 Z" style="fill: rgb(3, 3, 3);"/>
</svg>